<svg
  width="22"
  height="24"
  viewBox="0 0 22 24"
  fill="currentColor"
  xmlns="http://www.w3.org/2000/svg"
>
  <path
    fillRule="evenodd"
    clipRule="evenodd"
    d="M2.5 4C2.22386 4 2 4.22386 2 4.5C2 4.77614 2.22386 5 2.5 5H8.5C8.77614 5 9 4.77614 9 4.5C9 4.22386 8.77614 4 8.5 4H2.5ZM19.2 15.625H19.6C19.82 15.625 20 15.8219 20 16.0625V16.9375C20 17.1781 19.82 17.375 19.6 17.375H18.4C18.4 18.8242 17.325 20 16 20C14.675 20 13.6 18.8242 13.6 17.375H10.4C10.4 18.8242 9.325 20 8 20C6.675 20 5.6 18.8242 5.6 17.375H5.2C4.5375 17.375 4 16.7871 4 16.0625V16H2.5C2.22386 16 2 15.7761 2 15.5C2 15.2239 2.22386 15 2.5 15H4V7.3125C4 6.58789 4.5375 6 5.2 6H13.2C13.8625 6 14.4 6.58789 14.4 7.3125V8.625H15.5025C15.82 8.625 16.125 8.76445 16.35 9.01055L18.8475 11.7422C19.0725 11.9883 19.2 12.3219 19.2 12.6691V15.625ZM6.8 17.375C6.8 18.0996 7.3375 18.6875 8 18.6875C8.6625 18.6875 9.2 18.0996 9.2 17.375C9.2 16.6504 8.6625 16.0625 8 16.0625C7.3375 16.0625 6.8 16.6504 6.8 17.375ZM14.8 17.375C14.8 18.0996 15.3375 18.6875 16 18.6875C16.6625 18.6875 17.2 18.0996 17.2 17.375C17.2 16.6504 16.6625 16.0625 16 16.0625C15.3375 16.0625 14.8 16.6504 14.8 17.375ZM14.4 13H18V12.6691L15.5025 9.9375H14.4V13ZM2 19.5C2 19.2239 2.22386 19 2.5 19H4.5C4.77614 19 5 19.2239 5 19.5C5 19.7761 4.77614 20 4.5 20H2.5C2.22386 20 2 19.7761 2 19.5Z"
  />
</svg>
