<svg
  width="24"
  height="24"
  viewBox="0 0 24 24"
  fill="currentColor"
  xmlns="http://www.w3.org/2000/svg"
>
  <path
    fillRule="evenodd"
    clipRule="evenodd"
    d="M3.58579 7.66421L7.66421 3.58579C8.03929 3.21071 8.54799 3 9.07843 3H14.9216C15.452 3 15.9607 3.21071 16.3358 3.58579L20.4142 7.66421C20.7893 8.03929 21 8.54799 21 9.07843V14.9216C21 15.452 20.7893 15.9607 20.4142 16.3358L16.3358 20.4142C15.9607 20.7893 15.452 21 14.9216 21H9.07843C8.54799 21 8.03929 20.7893 7.66421 20.4142L3.58579 16.3358C3.21071 15.9607 3 15.452 3 14.9216V9.07843C3 8.54799 3.21071 8.03929 3.58579 7.66421ZM8 11C7.44772 11 7 11.4477 7 12C7 12.5523 7.44772 13 8 13H16C16.5523 13 17 12.5523 17 12C17 11.4477 16.5523 11 16 11H8Z"
  />
</svg>
