<svg
  width="24"
  height="24"
  viewBox="0 0 24 24"
  fill="none"
  xmlns="http://www.w3.org/2000/svg"
>
  <path
    fillRule="evenodd"
    clipRule="evenodd"
    d="M18.2857 9.77778V14.2222C18.2857 17.5359 15.6954 20.2222 12.5 20.2222C12.1002 20.2222 11.7099 20.1802 11.3329 20.1001L15.3495 4.55475C17.1028 5.58563 18.2857 7.53844 18.2857 9.77778ZM13.7399 3.91587L9.71737 19.484C7.92741 18.4638 6.71429 16.4899 6.71429 14.2222V9.77778C6.71429 6.46407 9.30464 3.77778 12.5 3.77778C12.9256 3.77778 13.3404 3.82543 13.7399 3.91587ZM5 9.77778C5 5.48223 8.35786 2 12.5 2C16.6421 2 20 5.48223 20 9.77778V14.2222C20 18.5178 16.6421 22 12.5 22C8.35786 22 5 18.5178 5 14.2222V9.77778Z"
    fill="black"
    fillOpacity="0.87"
  />
</svg>
