<svg
  width="24"
  height="24"
  viewBox="0 0 24 24"
  fill="none"
  xmlns="http://www.w3.org/2000/svg"
>
  <path
    d="M6.276 16.5L5.637 17.139C5.46937 17.3076 5.37529 17.5357 5.37529 17.7735C5.37529 18.0113 5.46937 18.2394 5.637 18.408C5.80563 18.5756 6.03373 18.6697 6.2715 18.6697C6.50927 18.6697 6.73737 18.5756 6.906 18.408L7.545 17.769C7.69244 17.5968 7.76949 17.3754 7.76074 17.1489C7.75199 16.9223 7.65809 16.7075 7.49781 16.5472C7.33752 16.3869 7.12266 16.293 6.89615 16.2843C6.66964 16.2755 6.44817 16.3526 6.276 16.5ZM5.7 12C5.7 11.7613 5.60518 11.5324 5.4364 11.3636C5.26761 11.1948 5.03869 11.1 4.8 11.1H3.9C3.66131 11.1 3.43239 11.1948 3.2636 11.3636C3.09482 11.5324 3 11.7613 3 12C3 12.2387 3.09482 12.4676 3.2636 12.6364C3.43239 12.8052 3.66131 12.9 3.9 12.9H4.8C5.03869 12.9 5.26761 12.8052 5.4364 12.6364C5.60518 12.4676 5.7 12.2387 5.7 12ZM12 5.7C12.2387 5.7 12.4676 5.60518 12.6364 5.4364C12.8052 5.26761 12.9 5.03869 12.9 4.8V3.9C12.9 3.66131 12.8052 3.43239 12.6364 3.2636C12.4676 3.09482 12.2387 3 12 3C11.7613 3 11.5324 3.09482 11.3636 3.2636C11.1948 3.43239 11.1 3.66131 11.1 3.9V4.8C11.1 5.03869 11.1948 5.26761 11.3636 5.4364C11.5324 5.60518 11.7613 5.7 12 5.7ZM6.276 7.545C6.44363 7.71127 6.66989 7.80501 6.906 7.806C7.02445 7.80668 7.14186 7.78398 7.25152 7.73919C7.36117 7.69441 7.4609 7.62841 7.545 7.545C7.71263 7.37637 7.80671 7.14827 7.80671 6.9105C7.80671 6.67273 7.71263 6.44463 7.545 6.276L6.906 5.637C6.73383 5.48956 6.51236 5.41251 6.28585 5.42126C6.05934 5.43001 5.84448 5.52391 5.68419 5.68419C5.52391 5.84448 5.43001 6.05934 5.42126 6.28585C5.41251 6.51236 5.48956 6.73383 5.637 6.906L6.276 7.545ZM17.076 7.806C17.3121 7.80501 17.5384 7.71127 17.706 7.545L18.345 6.906C18.4392 6.82532 18.5157 6.72603 18.5698 6.61437C18.6238 6.50271 18.6541 6.3811 18.6589 6.25715C18.6637 6.1332 18.6428 6.0096 18.5976 5.89411C18.5523 5.77862 18.4837 5.67372 18.396 5.58601C18.3083 5.49831 18.2034 5.42967 18.0879 5.38443C17.9724 5.33918 17.8488 5.31829 17.7249 5.32308C17.6009 5.32787 17.4793 5.35823 17.3676 5.41225C17.256 5.46627 17.1567 5.54279 17.076 5.637L16.5 6.276C16.3324 6.44463 16.2383 6.67273 16.2383 6.9105C16.2383 7.14827 16.3324 7.37637 16.5 7.545C16.6587 7.70283 16.8704 7.79588 17.094 7.806H17.076ZM20.1 11.1H19.2C18.9613 11.1 18.7324 11.1948 18.5636 11.3636C18.3948 11.5324 18.3 11.7613 18.3 12C18.3 12.2387 18.3948 12.4676 18.5636 12.6364C18.7324 12.8052 18.9613 12.9 19.2 12.9H20.1C20.3387 12.9 20.5676 12.8052 20.7364 12.6364C20.9052 12.4676 21 12.2387 21 12C21 11.7613 20.9052 11.5324 20.7364 11.3636C20.5676 11.1948 20.3387 11.1 20.1 11.1ZM12 18.3C11.7613 18.3 11.5324 18.3948 11.3636 18.5636C11.1948 18.7324 11.1 18.9613 11.1 19.2V20.1C11.1 20.3387 11.1948 20.5676 11.3636 20.7364C11.5324 20.9052 11.7613 21 12 21C12.2387 21 12.4676 20.9052 12.6364 20.7364C12.8052 20.5676 12.9 20.3387 12.9 20.1V19.2C12.9 18.9613 12.8052 18.7324 12.6364 18.5636C12.4676 18.3948 12.2387 18.3 12 18.3ZM17.724 16.5C17.553 16.4049 17.3557 16.3681 17.1619 16.3952C16.9681 16.4223 16.7885 16.5118 16.6501 16.6501C16.5118 16.7885 16.4223 16.9681 16.3952 17.1619C16.3681 17.3557 16.4049 17.553 16.5 17.724L17.139 18.363C17.3076 18.5306 17.5357 18.6247 17.7735 18.6247C18.0113 18.6247 18.2394 18.5306 18.408 18.363C18.5756 18.1944 18.6697 17.9663 18.6697 17.7285C18.6697 17.4907 18.5756 17.2626 18.408 17.094L17.724 16.5ZM12 7.05C11.021 7.05 10.064 7.34031 9.24993 7.88423C8.4359 8.42814 7.80145 9.20122 7.4268 10.1057C7.05214 11.0102 6.95412 12.0055 7.14511 12.9657C7.33611 13.9259 7.80755 14.8079 8.49982 15.5002C9.19209 16.1924 10.0741 16.6639 11.0343 16.8549C11.9945 17.0459 12.9898 16.9479 13.8943 16.5732C14.7988 16.1985 15.5719 15.5641 16.1158 14.7501C16.6597 13.936 16.95 12.979 16.95 12C16.9476 10.6879 16.4253 9.43024 15.4976 8.50245C14.5698 7.57466 13.3121 7.05238 12 7.05ZM12 15.15C11.377 15.15 10.768 14.9653 10.25 14.6191C9.73194 14.273 9.3282 13.781 9.08978 13.2055C8.85136 12.6299 8.78898 11.9965 8.91053 11.3855C9.03207 10.7744 9.33208 10.2131 9.77261 9.77261C10.2131 9.33208 10.7744 9.03207 11.3855 8.91053C11.9965 8.78898 12.6299 8.85136 13.2055 9.08978C13.781 9.3282 14.273 9.73194 14.6191 10.25C14.9653 10.768 15.15 11.377 15.15 12C15.15 12.8354 14.8181 13.6366 14.2274 14.2274C13.6366 14.8181 12.8354 15.15 12 15.15Z"
    fill="black"
  />
</svg>
