<svg
  width="24"
  height="24"
  viewBox="0 0 24 24"
  fill="none"
  xmlns="http://www.w3.org/2000/svg"
>
  <path
    d="M19.8507 13.4135C19.3053 12.6957 18.742 11.9537 18.2873 11.1574C18.1673 10.9475 17.8327 10.9475 17.7133 11.1574C17.258 11.9537 16.6947 12.6957 16.1493 13.4135C15.044 14.8691 14 16.2442 14 17.8705C14 20.1479 15.794 22 18 22C20.206 22 22 20.1479 22 17.8705C22 16.2442 20.956 14.8691 19.8507 13.4135Z"
    fill="black"
    fillOpacity="0.87"
  />
  <path
    d="M7.92309 2.57692C7.92309 2.2583 8.18138 2 8.50001 2C8.81864 2 9.07693 2.2583 9.07693 2.57692V16.4231C9.07693 16.7417 8.81864 17 8.50001 17C8.18138 17 7.92309 16.7417 7.92309 16.4231V2.57692Z"
    fill="black"
    fillOpacity="0.87"
  />
  <path
    d="M5.69719 3.4424C5.52887 3.71834 5.62235 4.06768 5.90599 4.22267L8.0462 5.39216C8.18849 5.46991 8.35161 5.48399 8.50009 5.44387C8.64861 5.48402 8.81176 5.46996 8.95409 5.39219L11.0943 4.2227C11.3779 4.0677 11.4714 3.71836 11.3031 3.44243C11.1348 3.16649 10.7684 3.06844 10.4847 3.22344L8.50017 4.30788L6.51555 3.22341C6.23191 3.06842 5.86552 3.16646 5.69719 3.4424Z"
    fill="black"
    fillOpacity="0.87"
  />
  <path
    d="M11.305 15.5618C11.4734 15.2858 11.3799 14.9365 11.0962 14.7815L8.95602 13.612C8.81373 13.5343 8.65062 13.5202 8.50213 13.5603C8.35361 13.5201 8.19046 13.5342 8.04814 13.612L5.90792 14.7815C5.62428 14.9365 5.5308 15.2858 5.69913 15.5617C5.86745 15.8377 6.23384 15.9357 6.51748 15.7807L8.50205 14.6963L10.4867 15.7808C10.7703 15.9358 11.1367 15.8377 11.305 15.5618Z"
    fill="black"
    fillOpacity="0.87"
  />
  <path
    d="M2.21636 6.53902C1.94042 6.37971 1.84588 6.02687 2.00519 5.75093C2.1645 5.47499 2.51734 5.38045 2.79328 5.53976L14.7844 12.4628C15.0603 12.6221 15.1549 12.975 14.9956 13.2509C14.8363 13.5269 14.4834 13.6214 14.2075 13.4621L2.21636 6.53902Z"
    fill="black"
    fillOpacity="0.87"
  />
  <path
    d="M1.85287 8.89943C2.00768 9.18317 2.35696 9.27688 2.633 9.10874L4.71592 7.84001C4.85434 7.75569 4.94807 7.62154 4.9876 7.47296C5.09661 7.36442 5.166 7.2161 5.16981 7.05398L5.22711 4.61575C5.2347 4.29262 4.97891 4.03699 4.65577 4.04479C4.33264 4.0526 4.06454 4.32088 4.05694 4.64402L4.00382 6.90476L2.0724 8.08121C1.79635 8.24936 1.69807 8.61569 1.85287 8.89943Z"
    fill="black"
    fillOpacity="0.87"
  />
  <path
    d="M15.1524 10.1027C14.9976 9.81897 14.6483 9.72526 14.3722 9.89341L12.2893 11.1621C12.1509 11.2465 12.0572 11.3806 12.0176 11.5292C11.9086 11.6377 11.8392 11.786 11.8354 11.9482L11.7781 14.3864C11.7705 14.7095 12.0263 14.9652 12.3495 14.9574C12.6726 14.9495 12.9407 14.6813 12.9483 14.3581L13.0014 12.0974L14.9328 10.9209C15.2089 10.7528 15.3072 10.3865 15.1524 10.1027Z"
    fill="black"
    fillOpacity="0.87"
  />
  <path
    d="M14.2073 5.53789C14.4832 5.37858 14.8361 5.47312 14.9954 5.74906C15.1547 6.025 15.0601 6.37784 14.7842 6.53715L2.79309 13.4602C2.51715 13.6195 2.16431 13.525 2.005 13.2491C1.84569 12.9731 1.94023 12.6203 2.21617 12.461L14.2073 5.53789Z"
    fill="black"
    fillOpacity="0.87"
  />
  <path
    d="M12.3449 4.043C12.0217 4.0352 11.7659 4.29082 11.7735 4.61396L11.8308 7.05218C11.8346 7.2142 11.9039 7.36242 12.0128 7.47094C12.0523 7.61962 12.146 7.75388 12.2845 7.83824L14.3675 9.10697C14.6435 9.27512 14.9928 9.18141 15.1476 8.89766C15.3024 8.61392 15.2041 8.24759 14.9281 8.07945L12.9968 6.9031L12.9437 4.64222C12.9361 4.31909 12.668 4.05081 12.3449 4.043Z"
    fill="black"
    fillOpacity="0.87"
  />
  <path
    d="M4.65331 14.959C4.97644 14.9668 5.23224 14.7111 5.22465 14.388L5.16735 11.9498C5.16354 11.7878 5.09425 11.6395 4.98536 11.531C4.94588 11.3823 4.85212 11.2481 4.71362 11.1637L2.6307 9.89499C2.35465 9.72685 2.00538 9.82056 1.85057 10.1043C1.69576 10.388 1.79405 10.7544 2.0701 10.9225L4.00135 12.0989L4.05448 14.3597C4.06207 14.6829 4.33018 14.9512 4.65331 14.959Z"
    fill="black"
    fillOpacity="0.87"
  />
</svg>
