<svg
  width="24"
  height="24"
  viewBox="0 0 24 24"
  fill="none"
  xmlns="http://www.w3.org/2000/svg"
>
  <path
    fillRule="evenodd"
    clipRule="evenodd"
    d="M15 7V6C15 5.44772 14.5523 5 14 5C13.4477 5 13 5.44772 13 6V14H2V15.5C2 16.3281 2.67188 17 3.5 17H4C4 18.6562 5.34375 20 7 20C8.65625 20 10 18.6562 10 17H14C14 18.6562 15.3438 20 17 20C18.6562 20 20 18.6562 20 17H21.5C21.775 17 22 16.775 22 16.5V15.5C22 15.225 21.775 15 21.5 15H21V11.6219C21 11.225 20.8406 10.8438 20.5594 10.5625L17.4375 7.44062C17.1562 7.15937 16.775 7 16.3781 7H15ZM7 18.5C6.17188 18.5 5.5 17.8281 5.5 17C5.5 16.1719 6.17188 15.5 7 15.5C7.82812 15.5 8.5 16.1719 8.5 17C8.5 17.8281 7.82812 18.5 7 18.5ZM17 18.5C16.1719 18.5 15.5 17.8281 15.5 17C15.5 16.1719 16.1719 15.5 17 15.5C17.8281 15.5 18.5 16.1719 18.5 17C18.5 17.8281 17.8281 18.5 17 18.5ZM19.5 12H15V8.5H16.3781L19.5 11.6219V12Z"
    fill="black"
  />
  <path
    fillRule="evenodd"
    clipRule="evenodd"
    d="M10.6083 7.36569C10.9207 7.05327 10.9207 6.54673 10.6083 6.23431C10.2959 5.9219 9.78938 5.9219 9.47696 6.23431L7.92133 7.78994L6.3657 6.23432C6.05328 5.9219 5.54675 5.9219 5.23433 6.23432C4.92191 6.54674 4.92191 7.05327 5.23433 7.36569L6.78996 8.92131L5.23431 10.477C4.9219 10.7894 4.9219 11.2959 5.23431 11.6083C5.54673 11.9207 6.05327 11.9207 6.36569 11.6083L7.92133 10.0527L9.47697 11.6083C9.78939 11.9208 10.2959 11.9208 10.6083 11.6083C10.9208 11.2959 10.9208 10.7894 10.6083 10.477L9.0527 8.92131L10.6083 7.36569Z"
    fill="black"
  />
</svg>
