<svg width="54" height="22" viewBox="0 0 54 22" fill="none" xmlns="http://www.w3.org/2000/svg">
<path fill-rule="evenodd" clip-rule="evenodd" d="M26.9994 22C41.9112 22 54 17.0743 54 10.9994C54 4.92453 41.9112 0 26.9994 0C12.0888 0 0 4.92453 0 10.9994C0 17.0743 12.0888 22 26.9994 22Z" fill="#270ADC"/>
<path fill-rule="evenodd" clip-rule="evenodd" d="M26.9994 20.7458C41.4437 20.7458 53.1533 16.382 53.1533 10.9994C53.1533 5.61683 41.4425 1.25421 26.9994 1.25421C12.5551 1.25421 0.845459 5.61798 0.845459 10.9994C0.845459 16.382 12.5551 20.7458 26.9994 20.7458Z" fill="white"/>
<path fill-rule="evenodd" clip-rule="evenodd" d="M26.9993 20.0985C41.2421 20.0985 52.7899 16.0255 52.7899 10.9994C52.7899 5.97449 41.2432 1.90033 26.9993 1.90033C12.7553 1.90033 1.20874 5.97449 1.20874 10.9994C1.20874 16.0255 12.7553 20.0985 26.9993 20.0985Z" fill="#270ADC"/>
<path fill-rule="evenodd" clip-rule="evenodd" d="M20.0338 8.64911H21.1736L19.7961 12.8502C19.7961 12.8502 19.5584 13.7386 20.1764 13.1629C20.722 12.654 20.8646 12.346 20.8646 12.346H21.1974C21.1974 12.346 20.4141 13.6902 19.7961 14.0271C19.1792 14.3629 18.3574 14.3144 18.3472 13.5471C18.3416 13.0786 18.4661 12.9713 18.4661 12.9713C18.4661 12.9713 17.2074 14.4113 16.4003 14.2913C15.5367 14.1632 15.1892 13.524 15.3556 12.1071C15.4959 10.9095 16.8746 9.01026 18.68 8.67334C18.68 8.67334 19.4871 8.50603 19.8911 9.05756L20.0338 8.64911Z" fill="white"/>
<path fill-rule="evenodd" clip-rule="evenodd" d="M19.4868 10.1375C19.4868 10.1375 19.059 11.5302 18.4421 12.3229C18.098 12.7648 16.3526 14.3398 16.7091 12.1302L16.8744 11.4587C16.8744 11.4587 17.3724 9.96677 18.6798 9.15448C19.2978 8.7691 19.8196 9.20063 19.4868 10.1375Z" fill="#270ADC"/>
<path fill-rule="evenodd" clip-rule="evenodd" d="M13.6227 13.6901C12.3764 14.514 10.7963 14.2186 10.7963 14.2186C7.99367 13.5944 7.94613 10.4733 9.84661 8.3606C12.0346 5.92719 15.0998 6.17872 15.831 6.44064C16.6381 6.72909 16.6618 7.61754 16.1151 7.97753C15.6171 8.30637 14.6459 7.87484 15.1179 6.92178C15.1123 6.93332 14.6402 6.67833 13.6453 6.87332C11.2275 7.3487 10.0356 9.89865 9.9881 11.4344C9.91226 13.884 11.6565 13.7028 12.3153 13.5955C13.3363 13.4271 13.6453 13.2113 14.2712 12.7209H14.6425C14.6425 12.7209 14.4048 13.1997 13.7879 13.5955L13.6227 13.6901Z" fill="white"/>
<path fill-rule="evenodd" clip-rule="evenodd" d="M23.3582 14.0986H22.2897C22.2897 14.0986 23.1567 11.1944 23.4771 10.1606C23.7272 9.35637 23.382 9.40483 22.919 9.88482L22.4436 10.4975H22.1233C22.1233 10.4975 23.2654 8.69177 24.1653 8.62484C24.1653 8.62484 24.9372 8.56484 24.6644 9.60906L24.3679 10.8575L25.3289 9.41752C25.7454 8.78176 26.2548 8.566 26.849 8.746C26.849 8.746 27.4433 9.26176 26.9441 9.97021C26.5185 10.5748 25.8156 10.246 25.8993 9.50175C25.8993 9.50175 25.1625 9.55021 23.9287 12.6102L23.3582 14.0986Z" fill="white"/>
<path fill-rule="evenodd" clip-rule="evenodd" d="M28.6532 14.1217H27.5847C27.5847 14.1217 28.4517 11.2186 28.7721 10.1848C29.0211 9.3806 28.677 9.42791 28.214 9.90905L27.7398 10.5217H27.4194C27.4194 10.5217 28.5615 8.716 29.4614 8.64907C29.4614 8.64907 30.2334 8.58908 29.9606 9.63329L29.664 10.8817L30.6261 9.44175C31.0415 8.806 31.552 8.59023 32.1463 8.76907C32.1463 8.76907 32.7394 9.28599 32.2414 9.99444C31.8158 10.599 31.114 10.2702 31.1966 9.52598C31.1966 9.52598 30.4609 9.57444 29.226 12.6355L28.6532 14.1217Z" fill="white"/>
<path fill-rule="evenodd" clip-rule="evenodd" d="M33.6641 8.75635H34.7802C34.7802 8.75635 33.4502 12.7532 33.4264 12.8732C33.4027 12.9932 33.1661 13.9289 33.8068 13.3647C34.4474 12.8005 34.1033 13.149 34.6025 12.5847H34.9353C34.9353 12.5847 34.023 14.1309 32.9408 14.3605C31.9787 14.5647 32.0263 13.712 32.0263 13.712C32.0263 13.712 32.0387 13.4351 32.3228 12.4994L33.6641 8.75635Z" fill="white"/>
<path fill-rule="evenodd" clip-rule="evenodd" d="M34.2062 8.1483C34.5537 8.29714 34.9929 8.04215 35.1876 7.57716C35.3834 7.11216 35.2589 6.61487 34.9125 6.46602C34.565 6.31718 34.1259 6.57217 33.9312 7.03832C33.7365 7.50216 33.8587 7.99946 34.2062 8.1483Z" fill="white"/>
<path fill-rule="evenodd" clip-rule="evenodd" d="M42.6163 14.1944H41.5477C41.5477 14.1944 42.4148 11.2914 42.7351 10.2575C42.9841 9.45333 42.64 9.50179 42.1771 9.98178L41.7017 10.5933H41.3813C41.3813 10.5933 42.5234 8.78757 43.4233 8.7218C43.4233 8.7218 44.1953 8.66065 43.9214 9.70602L43.6248 10.9545L44.5858 9.51333C45.0012 8.87757 45.5117 8.66065 46.1048 8.8418C46.1048 8.8418 46.6979 9.35756 46.1999 10.066C45.7732 10.6706 45.0714 10.3418 45.1551 9.59756C45.1551 9.59756 44.4194 9.64602 43.1845 12.706L42.6163 14.1944Z" fill="white"/>
<path fill-rule="evenodd" clip-rule="evenodd" d="M35.8486 11.169C35.8486 11.169 36.8696 8.26484 39.7662 8.62483C39.7662 8.62483 41.713 9.32059 40.3593 10.9048C40.3593 10.9048 39.7186 11.889 37.0824 11.9848C37.0824 11.9848 36.3942 14.2417 38.8878 13.4732C38.8878 13.4732 39.7911 12.9448 39.9088 12.6805H40.2178C40.2178 12.6805 39.6473 14.1447 37.7717 14.4817C37.7717 14.4828 34.8978 14.7943 35.8486 11.169Z" fill="white"/>
<path fill-rule="evenodd" clip-rule="evenodd" d="M37.2024 11.5048C37.2024 11.5048 37.4865 9.34368 39.0066 9.05638C39.0066 9.05638 39.9563 8.96061 39.6009 10.1848C39.6009 10.1848 39.0304 11.3133 37.843 11.4817L37.2024 11.5048Z" fill="#270ADC"/>
</svg>
